<svg id="Calque_1" data-name="Calque 1" xmlns="http://www.w3.org/2000/svg" viewBox="0 0 871.55 102.44"><defs><style>.cls-1{fill:#fc0029;}</style></defs><path d="M81.47,48.49h10V149.88h-10ZM129.59,106q0-9.63-5-14.92t-14.26-5.3q-8.94,0-13.85,4.7t-4.91,13.36l-1.47-14a23.59,23.59,0,0,1,10.18-10.29A32.58,32.58,0,0,1,115,76.45q11.77,0,18.23,7.71T139.64,106v43.93h-10Z" transform="translate(-81.47 -48.49)"/><path d="M172.9,147.23a24.39,24.39,0,0,1-10.22-10.77,38,38,0,0,1-3.52-17.05V107.62a37.25,37.25,0,0,1,3.52-16.84A24.3,24.3,0,0,1,172.9,80.11,33.12,33.12,0,0,1,189,76.45a33.12,33.12,0,0,1,16.11,3.66,24.3,24.3,0,0,1,10.22,10.67,37.25,37.25,0,0,1,3.52,16.84v12q0,9.9-3.52,16.91a24.48,24.48,0,0,1-10.22,10.7,32.79,32.79,0,0,1-16.11,3.7A32.79,32.79,0,0,1,172.9,147.23Zm30.72-11.4q5.19-5.75,5.2-16.21v-12q0-10.38-5.2-16.11T188.94,85.8q-9.42,0-14.58,5.71t-5.16,16.11v12q0,10.45,5.16,16.21t14.58,5.76Q198.42,141.59,203.62,135.83Z" transform="translate(-81.47 -48.49)"/><path d="M233.5,77.5h32.64v8.64H233.5ZM245,145.39Q241,140.55,241,131.06V56.44h10V131.2c0,3.11.69,5.5,2.09,7.18a7.62,7.62,0,0,0,6.21,2.51h6.83v9.34h-8.23Q249.12,150.23,245,145.39Z" transform="translate(-81.47 -48.49)"/><path d="M318.44,77.5h36.2v8.64h-36.2Zm7.67-9.84q0-9.61,4.15-14.4t12.52-4.77h11.86v9.34H344.46c-2.79,0-4.88.8-6.25,2.41s-2,4-2,7.28v82.36H326.11Z" transform="translate(-81.47 -48.49)"/><path d="M379.32,130.85q0,4.6,2.27,7.14a8,8,0,0,0,6.31,2.55h6.7v9.34h-8.37q-8.1,0-12.52-5t-4.43-14.15V48.49h10Z" transform="translate(-81.47 -48.49)"/><path d="M423.12,147.13A25.31,25.31,0,0,1,412.28,136q-3.73-7.29-3.74-17.54v-8.16q0-10.74,3.6-18.34a25.65,25.65,0,0,1,10.42-11.57,32.21,32.21,0,0,1,16.46-4,29.18,29.18,0,0,1,15.48,3.91,24.9,24.9,0,0,1,9.8,11.4q3.38,7.5,3.38,18v8.29h-52.3V109h43v-.7q0-10.74-5.06-16.63T439,85.8q-10.11,0-15.62,6.2t-5.51,17.58v9.2q0,10.88,5.86,16.84t16.53,6a25.06,25.06,0,0,0,9.93-2.1,27.42,27.42,0,0,0,8.75-5.92l6.84,6.55a38.59,38.59,0,0,1-12,8,34.55,34.55,0,0,1-13.52,2.82Q430.23,150.93,423.12,147.13Z" transform="translate(-81.47 -48.49)"/><path d="M507.22,109.92l5.58,8.3-23.43,31.66H478.14Zm.42,5.79L478.56,77.5h11.3L513.57,110l29.71,39.88H532.05Zm1.89-6.69L530.87,77.5h11.29l-27.4,39.05Z" transform="translate(-81.47 -48.49)"/><path class="cls-1" d="M583.83,48.49h19.11V149.88H583.83ZM625.68,106c0-3.53-1-6.28-3-8.23s-4.89-2.93-8.61-2.93c-3.53,0-6.27,1-8.19,3s-2.9,4.75-2.9,8.33l-1.46-16a27.08,27.08,0,0,1,7.84-10.25,18.62,18.62,0,0,1,11.47-3.42q11.44,0,17.72,7.71T644.78,106v43.93h-19.1Z" transform="translate(-81.47 -48.49)"/><path class="cls-1" d="M675.85,147.23a24.73,24.73,0,0,1-10.67-10.77q-3.66-7.08-3.66-17.05V107.62a36,36,0,0,1,3.66-16.84,24.66,24.66,0,0,1,10.67-10.67q7-3.66,16.91-3.66t16.92,3.66a24.66,24.66,0,0,1,10.67,10.67A36,36,0,0,1,724,107.62v12q0,9.9-3.66,16.91a24.83,24.83,0,0,1-10.67,10.7q-7,3.71-16.92,3.7T675.85,147.23Zm25.84-18.09q3.21-3.39,3.21-9.52v-12q0-6.06-3.21-9.41t-9-3.35q-5.72,0-8.89,3.35t-3.17,9.41v12q0,6.13,3.14,9.52t8.92,3.38Q698.48,132.52,701.69,129.14Z" transform="translate(-81.47 -48.49)"/><path class="cls-1" d="M758.81,121.5c0,3.49,1,6.2,3,8.13s4.75,2.89,8.33,2.89,6.34-1,8.27-3,2.89-4.8,2.89-8.48l1,15.83a22.48,22.48,0,0,1-6.73,10,17,17,0,0,1-11.47,4q-11.65,0-18-7.5T739.7,122.2V77.5h19.11Zm22.45-44h19v72.38h-19Z" transform="translate(-81.47 -48.49)"/><path class="cls-1" d="M834.19,149.78a57.52,57.52,0,0,1-11.5-3.38A42.49,42.49,0,0,1,813.2,141L825,126.31a45.56,45.56,0,0,0,11,5.16,35.93,35.93,0,0,0,10.88,1.82q6.69,0,10.39-1.5t3.69-4.15a4.41,4.41,0,0,0-1.6-3.7,9.93,9.93,0,0,0-4.12-1.78,69.26,69.26,0,0,0-7-.94l-2.55-.28-2.61-.27a3.63,3.63,0,0,0-.59-.11l-.6,0a77.83,77.83,0,0,1-13-2.59,16.58,16.58,0,0,1-8.26-5.89q-3.39-4.35-3.38-12.66a20.47,20.47,0,0,1,13.6-20.25,42.68,42.68,0,0,1,16-2.69,54.41,54.41,0,0,1,11,1.12,56.43,56.43,0,0,1,10.49,3.2,50.64,50.64,0,0,1,9.28,5L866.2,99.67a46.43,46.43,0,0,0-9.9-4.11,36.11,36.11,0,0,0-9.9-1.47,24.39,24.39,0,0,0-9,1.33c-2.14.88-3.21,2.12-3.21,3.7a3.12,3.12,0,0,0,1.71,2.82,12.76,12.76,0,0,0,4.26,1.46c1.69.31,4.17.64,7.42,1l1.26.14,1.25.13a2.48,2.48,0,0,0,.63.07,3,3,0,0,1,.63.07,88.46,88.46,0,0,1,13.74,2.51,17.92,17.92,0,0,1,9,6.14q3.72,4.6,3.73,13.53a21.36,21.36,0,0,1-14.23,21.1,44.8,44.8,0,0,1-16.8,2.82A68.13,68.13,0,0,1,834.19,149.78Z" transform="translate(-81.47 -48.49)"/><path class="cls-1" d="M906.34,147.13A26,26,0,0,1,895,136q-3.9-7.29-3.9-17.54v-8.16q0-10.74,3.73-18.34a26,26,0,0,1,10.88-11.57q7.14-4,17.26-4a27.6,27.6,0,0,1,16.25,4.74A29.16,29.16,0,0,1,949.5,95q3.53,9,3.53,21.79v4.74H903.51V108.6h32.08l-.21-1.67q-.76-6.29-3.94-9.7A11,11,0,0,0,923,93.82q-6.9,0-10.71,4.11t-3.8,11.65v9.2q0,7.39,4.15,11.44t11.61,4a22.19,22.19,0,0,0,7.61-1.36,22.86,22.86,0,0,0,6.83-3.87l12.48,11.09a41.7,41.7,0,0,1-12.69,8,38,38,0,0,1-14.23,2.82Q913.77,150.93,906.34,147.13Z" transform="translate(-81.47 -48.49)"/></svg>